<svg version="1.1" preserveAspectRatio="none" xmlns="http://www.w3.org/2000/svg" width="500" height="500" viewBox="0 0 500 500"><rect width="100%" height="100%" fill="#0C0C0C" fill-opacity="1"/><svg viewBox="173.055 293.5156 361.1567 70" width="333" height="64.54262097311222" x="83.5px" y="217.7287px" xmlns="http://www.w3.org/2000/svg" xmlns:xlink="http://www.w3.org/1999/xlink" preserveAspectRatio="none"><defs></defs><style>.companyName {fill:#EFEFEF;fill-opacity:1;}.icon3-str {stroke:#AAAAAA;stroke-opacity:1;}</style><g opacity="1" transform="rotate(0 173.055 293.5156)">
<svg width="361.1567" height="70" x="173.055" y="293.5156" version="1.1" preserveAspectRatio="none" viewBox="2.207 -30.3906 165.059 31.9922">
  <g transform="matrix(1 0 0 1 0 0)" class="companyName"><path id="id-D6z1nYkh5" d="M18.20-29.36L18.20-29.36Q16.33-29.36 14.40-28.96Q12.48-28.55 10.38-27.48Q8.28-26.41 6.68-24.77Q5.08-23.13 4.04-20.40Q3.01-17.68 3.01-14.24Q3.01-10.80 4.04-8.08Q5.08-5.35 6.68-3.74Q8.28-2.13 10.38-1.06Q12.48 0 14.40 0.40Q16.33 0.80 18.20 0.80L18.20 0.80Q21.15 0.80 23.50 0.24Q25.84-0.31 28.81-1.48L28.81-1.48Q27.93-3.89 27.93-7.56L27.93-7.56L27.93-10.45Q27.93-11.88 34.43-12.32L34.43-12.32Q34.65-12.79 34.43-13.24L34.43-13.24Q29.32-13.09 26.45-13.09L26.45-13.09Q24.04-13.09 19.65-13.24L19.65-13.24Q19.51-12.79 19.65-12.32L19.65-12.32Q24.16-11.88 24.16-10.45L24.16-10.45L24.16-2.52Q22.48-0.61 18.20-0.61L18.20-0.61Q15.92-0.61 14.04-1.45Q12.17-2.29 10.95-3.66Q9.73-5.04 8.91-6.86Q8.09-8.67 7.72-10.52Q7.36-12.36 7.36-14.24L7.36-14.24Q7.36-16.64 7.96-18.94Q8.55-21.23 9.78-23.31Q11.00-25.39 13.17-26.68Q15.35-27.97 18.20-27.97L18.20-27.97Q20.12-27.97 21.76-27.36Q23.40-26.76 24.46-25.94Q25.53-25.12 26.52-23.74Q27.52-22.36 28.04-21.36Q28.55-20.35 29.28-18.81L29.28-18.81Q29.88-18.89 30-19.24L30-19.24Q28.55-25.04 25.63-27.20Q22.71-29.36 18.20-29.36ZM28.81-17.93L28.81-17.93Q27.97-19.80 27.27-21.03Q26.56-22.25 25.38-23.76Q24.20-25.27 22.58-26.11Q20.96-26.95 18.96-27.13L18.96-27.13Q16.68-26.99 14.94-25.75Q13.20-24.51 12.25-22.58Q11.29-20.64 10.82-18.54Q10.35-16.45 10.35-14.24L10.35-14.24Q10.35-11.19 11.17-8.42Q11.99-5.64 14.05-3.53Q16.11-1.41 19.12-1.41L19.12-1.41Q21.91-1.41 23.36-2.83L23.36-2.83L23.36-10.45Q23.36-11.11 19.00-11.56L19.00-11.56Q18.48-12.93 19.08-14.08L19.08-14.08Q24.92-13.81 35.23-13.96L35.23-13.96Q35.68-12.79 35.27-11.56L35.27-11.56Q30.92-11.11 30.92-10.45L30.92-10.45L30.92-7.56Q30.92-4.00 32.03-1.00L32.03-1.00Q29.28 0.04 27.94 0.44Q26.60 0.84 24.06 1.22Q21.52 1.60 18.20 1.60L18.20 1.60Q16.19 1.60 14.18 1.18Q12.17 0.76 9.96-0.36Q7.75-1.48 6.07-3.18Q4.39-4.88 3.30-7.74Q2.21-10.61 2.21-14.24Q2.21-17.87 3.28-20.73Q4.36-23.59 6.02-25.31Q7.68-27.03 9.85-28.17Q12.03-29.32 14.03-29.74Q16.04-30.16 18.05-30.16L18.05-30.16Q21.29-30.16 25.24-29.34Q29.20-28.52 30.27-28.40L30.27-28.40Q29.65-25.88 29.79-23.97Q29.92-22.07 30.88-19.32L30.88-19.32Q30.31-18.16 28.81-17.93Z M46.31-27.36L46.31-27.36L46.35-27.36Q47.56-27.44 49.47-27.44L49.47-27.44Q52.44-27.44 54.01-25.61Q55.59-23.77 55.59-20.84L55.59-20.84Q55.59-17.87 54.15-15.69Q52.71-13.52 49.67-13.52L49.67-13.52Q47.87-13.52 46.11-13.96L46.11-13.96Q46.11-20.84 46.31-27.36ZM54.79-20.84L54.79-20.84Q54.79-23.36 53.27-25.08Q51.76-26.80 49.28-26.60L49.28-26.60Q49.12-19.08 49.12-14.55L49.12-14.55Q49.51-14.43 50.31-14.36L50.31-14.36Q52.60-14.61 53.69-16.50Q54.79-18.40 54.79-20.84ZM42.56-2.68L42.56-2.68Q42.52-1.23 38.03-0.80L38.03-0.80Q37.87-0.49 38.03 0.12L38.03 0.12Q41.35 0 44.84 0L44.84 0Q49.00 0 52.83 0.12L52.83 0.12Q52.99-0.20 52.83-0.80L52.83-0.80Q46.35-1.19 46.31-2.68L46.31-2.68Q46.11-8.16 46.11-12.48L46.11-12.48Q48.32-12.03 50.20-12.03L50.20-12.03Q53.40-6.07 58.63 0L58.63 0Q59.63 0 61.51 0.02Q63.40 0.04 64.91 0.06Q66.43 0.08 67.79 0.12L67.79 0.12Q67.95-0.23 67.79-0.80L67.79-0.80Q64.59-1.04 62.39-2.37Q60.20-3.71 57.27-7.32L57.27-7.32Q55.27-9.84 53.67-12.64L53.67-12.64Q56.56-13.59 58.22-15.82Q59.88-18.05 59.88-20.84L59.88-20.84Q59.88-24.36 57.62-26.53Q55.35-28.71 51.35-28.71L51.35-28.71Q38.14-28.55 38.07-28.71L38.07-28.71Q37.95-28.24 38.07-27.79L38.07-27.79Q42.56-27.36 42.60-25.92L42.60-25.92Q42.79-21.33 42.79-15L42.79-15Q42.79-8.81 42.56-2.68ZM41.76-2.71L41.76-2.71Q41.99-7.60 41.99-15L41.99-15Q41.99-21.29 41.80-25.88L41.80-25.88Q41.76-26.60 37.44-27.03L37.44-27.03Q37.11-28.32 37.52-29.55L37.52-29.55Q39.67-29.43 42.19-29.43Q44.71-29.43 47.97-29.47Q51.23-29.51 52.75-29.51L52.75-29.51Q57.48-29.51 60.18-27.12Q62.87-24.73 62.87-20.84L62.87-20.84Q62.87-18.09 61.29-15.76Q59.71-13.44 57.03-12.25L57.03-12.25Q58.36-10.08 60.12-7.79L60.12-7.79Q62.19-5.04 64.19-3.42Q66.19-1.80 68.63-1.56L68.63-1.56Q68.95-0.31 68.55 0.96L68.55 0.96Q65.76 0.88 58.28 0.80L58.28 0.80Q52.79-5.61 49.71-11.23L49.71-11.23L49.12-11.23Q49.12-7.60 49.32-2.71L49.32-2.71Q49.32-2.60 49.41-2.48Q49.51-2.36 50.18-2.11Q50.84-1.86 52.20-1.67Q53.55-1.48 53.71-1.45L53.71-1.45Q54.04-0.35 53.59 0.96L53.59 0.96Q46.39 0.80 44.84 0.80L44.84 0.80Q43.79 0.80 37.48 0.96L37.48 0.96Q36.99-0.39 37.48-1.56L37.48-1.56Q41.72-1.99 41.76-2.71Z M101.35-0.80L101.35-0.80Q100.25-0.86 99.23-0.97Q98.20-1.07 97.36-1.27Q96.52-1.46 95.95-1.79Q95.37-2.11 95.20-2.60L95.20-2.60L84.39-29.28Q84.06-29.26 83.75-29.00L83.75-29.00Q83.61-26.58 82.27-25.12L82.27-25.12L82.71-23.96L74.47-3.24Q73.69-1.29 69.67-0.80L69.67-0.80Q69.55-0.53 69.55-0.31L69.55-0.31Q69.55-0.08 69.67 0.16L69.67 0.16Q71.89 0.08 73.25 0.04Q74.61 0 75.12 0L75.12 0Q75.57 0 77.16 0.04Q78.75 0.08 81.48 0.16L81.48 0.16Q81.60-0.08 81.60-0.31L81.60-0.31Q81.60-0.53 81.48-0.80L81.48-0.80Q79.86-0.96 78.85-1.14Q77.83-1.33 77.27-1.54Q76.70-1.76 76.50-2.02Q76.31-2.29 76.31-2.62L76.31-2.62Q76.31-2.83 76.39-3.05L76.39-3.05L79.24-10.20Q81.41-10.23 82.74-10.25Q84.08-10.27 84.59-10.27L84.59-10.27Q85.70-10.27 86.57-10.26Q87.44-10.25 88.07-10.23L88.07-10.23L90.90-3.05Q91.00-2.75 91.00-2.60L91.00-2.60Q91.00-2.07 90.46-1.66Q89.92-1.25 89.14-1.09L89.14-1.09L87.03-0.80Q86.91-0.53 86.91-0.31L86.91-0.31Q86.91-0.08 87.03 0.16L87.03 0.16Q88.69 0.10 90.40 0.06Q92.11 0.02 93.91 0.02L93.91 0.02Q95.70 0.02 97.55 0.06Q99.39 0.10 101.35 0.16L101.35 0.16Q101.48-0.12 101.48-0.31L101.48-0.31Q101.48-0.43 101.45-0.55Q101.41-0.66 101.35-0.80ZM84.59-11.80L84.59-11.80Q81.76-11.80 79.92-11.88L79.92-11.88L83.63-21.45L83.71-21.45L87.44-11.84Q86.39-11.80 84.59-11.80ZM86.27-12.60L83.67-19.39L81.07-12.64Q83.44-12.52 86.27-12.60L86.27-12.60ZM101.95-1.52L101.95-1.52Q102.44-0.35 101.91 0.96L101.91 0.96L86.43 0.96Q85.96-0.39 86.43-1.52L86.43-1.52Q88.55-1.64 89.43-1.96Q90.31-2.29 90.04-3.01L90.04-3.01L87.48-9.47Q83.87-9.61 79.75-9.39L79.75-9.39L77.23-2.93Q77.11-2.60 77.41-2.33Q77.71-2.07 78.40-1.91Q79.08-1.76 80-1.66Q80.92-1.56 82.07-1.52L82.07-1.52Q82.56-0.35 82.03 0.96L82.03 0.96Q75.63 0.72 69.12 0.96L69.12 0.96Q68.59-0.35 69.08-1.52L69.08-1.52Q73.11-1.99 73.63-3.28L73.63-3.28L81.88-24.00Q81.80-24.16 81.57-24.72Q81.35-25.27 81.31-25.45L81.31-25.45Q82.83-26.99 82.99-29.43L82.99-29.43Q84.71-30.27 87.03-30.39L87.03-30.39L97.99-3.20Q98.36-2.29 99.16-1.98Q99.96-1.68 101.95-1.52Z M129.47 0.80L129.47 0.80Q107.56 0.80 104.20 0.92L104.20 0.92Q104.08 0.82 103.95 0.59Q103.81 0.35 103.69 0.08Q103.57-0.20 103.51-0.46Q103.44-0.72 103.44-0.88L103.44-0.88Q107.97-7.29 112.42-13.70Q116.88-20.12 121.23-26.56L121.23-26.56Q119.45-26.46 118.01-26.27Q116.56-26.07 115.31-25.72Q114.06-25.37 112.94-24.85Q111.82-24.34 110.66-23.62Q109.51-22.91 108.28-21.97Q107.05-21.04 105.59-19.84L105.59-19.84Q104.20-20.18 103.71-21.23L103.71-21.23Q107.17-24.86 108.59-29.51L108.59-29.51Q111.11-29.41 113.63-29.38Q116.15-29.36 118.71-29.36L118.71-29.36Q121.27-29.36 123.83-29.38Q126.39-29.41 129.00-29.51L129.00-29.51Q130.31-29.08 130.31-27.60L130.31-27.60Q125.31-20.53 120.86-14.13Q116.41-7.73 112.52-1.99L112.52-1.99L118.07-1.99Q120.49-1.99 122.40-2.72Q124.32-3.46 125.74-4.73Q127.17-6.00 128.13-7.71Q129.10-9.43 129.67-11.41L129.67-11.41Q131.23-11.07 131.91-10.20L131.91-10.20Q131.84-9.90 131.69-9.36Q131.54-8.81 131.36-8.13Q131.17-7.44 130.96-6.67Q130.74-5.90 130.55-5.17Q130.35-4.43 130.20-3.77Q130.04-3.11 129.82-2.06Q129.61-1.02 129.47 0.80ZM120.31 0L120.31 0Q124.84 0 127.20-2.38Q129.55-4.77 130.88-10.12L130.88-10.12Q130.55-10.39 130.12-10.45L130.12-10.45Q129.59-8.55 128.73-7.02Q127.87-5.49 126.47-4.12Q125.08-2.75 122.94-1.97Q120.80-1.19 118.11-1.19L118.11-1.19L108.83-1.19Q117.99-14.73 127.32-27.83L127.32-27.83Q127.32-28.48 126.68-28.71L126.68-28.71Q119.24-28.52 109.20-28.71L109.20-28.71Q107.79-24.32 104.71-21.07L104.71-21.07Q104.96-20.64 105.51-20.64L105.51-20.64Q108.91-23.81 110.72-26.68L110.72-26.68Q111.27-26.72 115.56-27.06Q119.84-27.40 122.79-27.44L122.79-27.44Q113.83-14.12 104.24-0.64L104.24-0.64Q104.24-0.16 104.51 0.12L104.51 0.12Q106.64 0 120.31 0Z M166.43-0.80L166.43-0.80Q165.33-0.86 164.31-0.97Q163.28-1.07 162.44-1.27Q161.60-1.46 161.03-1.79Q160.45-2.11 160.27-2.60L160.27-2.60L149.47-29.28Q149.14-29.26 148.83-29.00L148.83-29.00Q148.69-26.58 147.34-25.12L147.34-25.12L147.79-23.96L139.55-3.24Q138.77-1.29 134.75-0.80L134.75-0.80Q134.63-0.53 134.63-0.31L134.63-0.31Q134.63-0.08 134.75 0.16L134.75 0.16Q136.97 0.08 138.33 0.04Q139.69 0 140.20 0L140.20 0Q140.64 0 142.24 0.04Q143.83 0.08 146.56 0.16L146.56 0.16Q146.68-0.08 146.68-0.31L146.68-0.31Q146.68-0.53 146.56-0.80L146.56-0.80Q144.94-0.96 143.93-1.14Q142.91-1.33 142.34-1.54Q141.78-1.76 141.58-2.02Q141.39-2.29 141.39-2.62L141.39-2.62Q141.39-2.83 141.46-3.05L141.46-3.05L144.32-10.20Q146.48-10.23 147.82-10.25Q149.16-10.27 149.67-10.27L149.67-10.27Q150.78-10.27 151.65-10.26Q152.52-10.25 153.14-10.23L153.14-10.23L155.98-3.05Q156.07-2.75 156.07-2.60L156.07-2.60Q156.07-2.07 155.54-1.66Q155-1.25 154.22-1.09L154.22-1.09L152.11-0.80Q151.99-0.53 151.99-0.31L151.99-0.31Q151.99-0.08 152.11 0.16L152.11 0.16Q153.77 0.10 155.48 0.06Q157.19 0.02 158.98 0.02L158.98 0.02Q160.78 0.02 162.63 0.06Q164.47 0.10 166.43 0.16L166.43 0.16Q166.56-0.12 166.56-0.31L166.56-0.31Q166.56-0.43 166.52-0.55Q166.48-0.66 166.43-0.80ZM149.67-11.80L149.67-11.80Q146.84-11.80 145-11.88L145-11.88L148.71-21.45L148.79-21.45L152.52-11.84Q151.46-11.80 149.67-11.80ZM151.35-12.60L148.75-19.39L146.15-12.64Q148.52-12.52 151.35-12.60L151.35-12.60ZM167.03-1.52L167.03-1.52Q167.52-0.35 166.99 0.96L166.99 0.96L151.50 0.96Q151.04-0.39 151.50-1.52L151.50-1.52Q153.63-1.64 154.51-1.96Q155.39-2.29 155.12-3.01L155.12-3.01L152.56-9.47Q148.95-9.61 144.82-9.39L144.82-9.39L142.30-2.93Q142.19-2.60 142.49-2.33Q142.79-2.07 143.48-1.91Q144.16-1.76 145.08-1.66Q146.00-1.56 147.15-1.52L147.15-1.52Q147.64-0.35 147.11 0.96L147.11 0.96Q140.70 0.72 134.20 0.96L134.20 0.96Q133.67-0.35 134.16-1.52L134.16-1.52Q138.18-1.99 138.71-3.28L138.71-3.28L146.95-24.00Q146.88-24.16 146.65-24.72Q146.43-25.27 146.39-25.45L146.39-25.45Q147.91-26.99 148.07-29.43L148.07-29.43Q149.79-30.27 152.11-30.39L152.11-30.39L163.07-3.20Q163.44-2.29 164.24-1.98Q165.04-1.68 167.03-1.52Z"/></g>
</svg>
</g></svg></svg>